<?xml version="1.0" encoding="utf-8"?>
<!-- Generator: Adobe Illustrator 24.3.0, SVG Export Plug-In . SVG Version: 6.00 Build 0)  -->
<svg version="1.1" id="Layer_1" xmlns="http://www.w3.org/2000/svg" xmlns:xlink="http://www.w3.org/1999/xlink" x="0px" y="0px"
	 viewBox="480 850 1040 300" style="enable-background:new 480 850 1040 300;" xml:space="preserve">
<style type="text/css">
	.st0{opacity:0.4;fill:url(#SVGID_1_);}
	.st1{fill:url(#SVGID_2_);}
	.st2{fill:url(#SVGID_3_);}
	.st3{fill:url(#SVGID_4_);}
	.st4{fill:url(#SVGID_5_);}
	.st5{fill:url(#SVGID_6_);}
	.st6{fill:url(#SVGID_7_);}
	.st7{fill:url(#SVGID_8_);}
	.st8{fill:url(#SVGID_9_);}
	.st9{fill:url(#SVGID_10_);}
	.st10{fill:url(#SVGID_11_);}
</style>
<g>
	<g>
		<linearGradient id="SVGID_1_" gradientUnits="userSpaceOnUse" x1="131.0078" y1="-156.8225" x2="895.9982" y2="1828.9817">
			<stop  offset="0" style="stop-color:#01038A"/>
			<stop  offset="1" style="stop-color:#0085FC"/>
		</linearGradient>
		<path class="st0" d="M663.67,1053.07c0.07-0.65,0.14-1.31,0.19-1.96c0.03-0.35,0.05-0.71,0.07-1.06c0.04-0.61,0.07-1.22,0.1-1.82
			c0.01-0.36,0.02-0.72,0.03-1.08c0.01-0.61,0.02-1.22,0.02-1.83c0-0.34,0-0.69-0.01-1.03c-0.01-0.65-0.04-1.31-0.07-1.96
			c-0.01-0.29-0.02-0.58-0.04-0.87c-0.05-0.82-0.11-1.63-0.19-2.44c-0.01-0.12-0.02-0.24-0.03-0.36c-0.09-0.91-0.2-1.83-0.33-2.73
			h-0.01c-0.15-1.05-0.32-2.09-0.51-3.12h-5.28c0.24,1.18,0.44,2.37,0.62,3.56c0.06,0.43,0.12,0.85,0.18,1.28
			c0.02,0.19,0.04,0.38,0.07,0.57c0.12,1.03,0.22,2.07,0.29,3.12c0,0.04,0.01,0.08,0.01,0.11c0.03,0.39,0.04,0.77,0.06,1.16
			c0.01,0.31,0.03,0.62,0.04,0.94c0.01,0.35,0.02,0.69,0.02,1.04c0.01,0.37,0.01,0.74,0.01,1.11c0,0.31,0,0.62-0.01,0.93
			c-0.01,0.44-0.02,0.88-0.04,1.32c-0.01,0.25-0.02,0.5-0.03,0.75c-0.03,0.7-0.08,1.4-0.13,2.09c-0.07,0.88-0.16,1.74-0.26,2.62
			c-0.05,0.45-0.11,0.9-0.18,1.35c-8.19,4.25-17.84,7.51-28.27,9.63c-0.71-1.38-1.82-2.56-3.29-3.35c-0.29-0.15-0.58-0.28-0.87-0.4
			c1.18-25.64-6.23-50.62-20.44-69.11c3.54-2.44,7.23-4.55,11.04-6.25c0.42,0.15,0.85,0.31,1.27,0.47c0.28,0.11,0.55,0.22,0.83,0.33
			c1.04,0.41,2.07,0.85,3.09,1.33c0.38,0.17,0.76,0.35,1.13,0.53c0.81,0.39,1.61,0.8,2.4,1.23c1.14,0.61,2.26,1.26,3.36,1.94
			c0.58,0.36,1.14,0.75,1.71,1.12c0.5,0.33,1.01,0.65,1.5,0.99c0.7,0.49,1.37,1.01,2.04,1.53c0.33,0.25,0.68,0.49,1.01,0.76
			c0.68,0.54,1.34,1.12,2,1.69c0.32,0.27,0.65,0.53,0.96,0.81c0.54,0.48,1.07,0.97,1.59,1.47c0.39,0.38,0.77,0.77,1.16,1.16v-7.1
			c-0.85-0.74-1.72-1.46-2.61-2.16h0.02c-0.09-0.07-0.18-0.13-0.26-0.2c-0.2-0.16-0.4-0.3-0.6-0.46c-0.74-0.56-1.48-1.12-2.24-1.65
			c-0.32-0.22-0.64-0.45-0.96-0.67c-0.7-0.48-1.41-0.94-2.13-1.39c-0.31-0.2-0.62-0.4-0.94-0.59c-1.02-0.62-2.06-1.23-3.13-1.8
			c-3.37-1.81-6.88-3.35-10.45-4.55l-0.14-0.05l-0.79-0.27l-0.02,0.01c-8.33-2.72-16.97-3.79-25.71-3.22l-0.03-0.02l-1.01,0.08
			c-19.55,1.54-37.15,11.09-48.99,26.16c-2.47,3.14-4.69,6.51-6.62,10.11c-1.3,2.42-2.44,4.91-3.44,7.44
			c-1.68,4.27-2.93,8.67-3.74,13.16c-1.02,5.72-1.33,11.57-0.88,17.42l0.11,1.28l0.02,0.01c2.21,23.14,15.65,43.42,36.16,54.44
			c2.03,1.09,4.11,2.07,6.19,2.94l0,0.01l0.95,0.38c0.05,0.02,0.09,0.04,0.14,0.06c1.37,0.54,2.75,1.02,4.14,1.48
			c5.59,1.82,11.35,2.91,17.17,3.26c0.28,0.02,0.56,0.05,0.85,0.06c0.53,0.02,1.05,0.02,1.58,0.04c0.55,0.01,1.11,0.04,1.66,0.04
			c0,0,0,0,0,0s0,0,0,0c4.27,0,8.56-0.42,12.82-1.22c0.47-0.09,0.94-0.16,1.41-0.26l1.11-0.23l0.02-0.04
			c9.6-2.17,18.49-6.3,26.17-12.04c7.99-5.97,14.68-13.68,19.53-22.71c3.43-6.38,5.82-13.2,7.12-20.25l0.02-0.01l0.21-1.25
			c0.16-0.96,0.29-1.91,0.41-2.87C663.61,1053.68,663.64,1053.38,663.67,1053.07z M606.82,1108.53c-0.21,0.04-0.41,0.08-0.62,0.12
			c-0.34,0.06-0.68,0.12-1.02,0.18c-0.41,0.07-0.83,0.13-1.24,0.19c-0.33,0.05-0.66,0.09-0.99,0.14c-0.43,0.05-0.85,0.11-1.28,0.15
			c-0.32,0.03-0.64,0.07-0.96,0.1c-0.43,0.04-0.87,0.08-1.3,0.11c-0.32,0.02-0.63,0.04-0.95,0.06c-0.44,0.03-0.88,0.05-1.31,0.06
			c-0.31,0.01-0.63,0.02-0.94,0.03c-0.44,0.01-0.88,0.02-1.32,0.02c-0.31,0-0.63,0-0.94-0.01c-0.44-0.01-0.87-0.02-1.31-0.03
			c-0.32-0.01-0.63-0.02-0.95-0.04c-0.43-0.02-0.87-0.05-1.3-0.08c-0.32-0.02-0.63-0.05-0.95-0.07c-0.43-0.04-0.86-0.08-1.29-0.12
			c-0.32-0.03-0.63-0.07-0.95-0.11c-0.43-0.05-0.85-0.11-1.28-0.17c-0.32-0.04-0.64-0.09-0.96-0.14c-0.42-0.07-0.84-0.14-1.26-0.21
			c-0.32-0.06-0.64-0.12-0.96-0.18c-0.42-0.08-0.83-0.16-1.25-0.25c-0.32-0.07-0.64-0.14-0.96-0.21c-0.41-0.1-0.83-0.19-1.24-0.3
			c-0.32-0.08-0.63-0.16-0.95-0.25c-0.41-0.11-0.82-0.22-1.24-0.34c-0.31-0.09-0.62-0.18-0.93-0.28c-0.41-0.13-0.83-0.26-1.24-0.39
			c-0.3-0.1-0.61-0.2-0.91-0.31c-0.42-0.14-0.83-0.29-1.25-0.44c-0.14-0.05-0.29-0.11-0.43-0.16c-3.67-10.93-5.47-22.48-5.39-34.41
			c0.8-0.51,1.52-1.17,2.11-1.97c7.61,1.55,15.48,2.56,23.51,2.97c2.84,0.14,5.67,0.22,8.48,0.22c5.03,0,9.99-0.26,14.87-0.72
			c0.68,1.3,1.73,2.42,3.09,3.2C616.86,1086.93,612.7,1098.43,606.82,1108.53z M530.86,1049.19c-0.01-0.13-0.02-0.25-0.02-0.38
			c-0.02-0.45-0.04-0.91-0.05-1.36c-0.01-0.3-0.02-0.6-0.02-0.9c-0.01-0.44-0.01-0.87-0.01-1.31c0-0.31,0.01-0.63,0.01-0.94
			c0.01-0.42,0.02-0.85,0.04-1.27c0.01-0.32,0.03-0.65,0.05-0.97c0.02-0.41,0.05-0.83,0.08-1.24c0.02-0.33,0.05-0.66,0.08-0.99
			c0.04-0.41,0.08-0.82,0.12-1.22c0.04-0.33,0.08-0.67,0.12-1c0.05-0.4,0.1-0.8,0.16-1.2c0.05-0.34,0.1-0.67,0.16-1.01
			c0.06-0.39,0.13-0.79,0.2-1.18c0.06-0.34,0.13-0.68,0.2-1.02c0.08-0.39,0.15-0.77,0.24-1.16c0.08-0.35,0.16-0.69,0.24-1.04
			c0.09-0.38,0.18-0.75,0.27-1.13c0.09-0.35,0.19-0.7,0.28-1.06c0.1-0.36,0.2-0.73,0.3-1.09c0.11-0.36,0.22-0.73,0.33-1.09
			c0.11-0.35,0.21-0.69,0.33-1.04c0.13-0.38,0.26-0.76,0.4-1.14c0.11-0.32,0.22-0.64,0.34-0.96c0.15-0.42,0.32-0.84,0.48-1.25
			c0.11-0.28,0.21-0.55,0.32-0.83c0.2-0.49,0.41-0.98,0.63-1.46c0.09-0.2,0.17-0.4,0.25-0.59c0.3-0.67,0.61-1.33,0.94-1.99
			c0.01-0.01,0.01-0.02,0.02-0.03c0.34-0.69,0.69-1.37,1.05-2.04c0.93-1.73,1.93-3.39,2.99-5.01c0.04-0.05,0.07-0.11,0.11-0.16
			c0.28-0.42,0.57-0.84,0.86-1.25c0.09-0.13,0.18-0.27,0.28-0.41c0.26-0.36,0.52-0.72,0.79-1.08c0.13-0.18,0.26-0.36,0.4-0.54
			c0.25-0.32,0.5-0.64,0.75-0.96c0.16-0.2,0.32-0.41,0.48-0.61c0.24-0.29,0.48-0.58,0.72-0.87c0.19-0.22,0.37-0.45,0.56-0.67
			c0.23-0.27,0.46-0.53,0.7-0.79c0.21-0.23,0.41-0.47,0.62-0.7c0.23-0.25,0.46-0.49,0.69-0.74c0.22-0.24,0.44-0.47,0.67-0.7
			c0.23-0.23,0.46-0.46,0.69-0.69c0.24-0.24,0.47-0.47,0.71-0.71c0.22-0.22,0.45-0.43,0.68-0.64c0.25-0.24,0.51-0.48,0.77-0.71
			c0.22-0.2,0.45-0.4,0.68-0.6c0.27-0.24,0.53-0.47,0.81-0.7c0.23-0.19,0.46-0.38,0.68-0.57c0.28-0.23,0.55-0.46,0.84-0.69
			c0.23-0.18,0.46-0.36,0.69-0.54c0.29-0.22,0.58-0.45,0.87-0.67c0.23-0.17,0.46-0.34,0.69-0.51c0.3-0.22,0.6-0.44,0.9-0.65
			c0.23-0.16,0.47-0.32,0.71-0.48c0.31-0.21,0.61-0.42,0.92-0.62c0.24-0.16,0.48-0.31,0.72-0.46c0.31-0.2,0.63-0.4,0.94-0.59
			c0.24-0.15,0.48-0.29,0.72-0.43c0.32-0.19,0.65-0.38,0.97-0.57c0.24-0.14,0.48-0.27,0.73-0.41c0.33-0.18,0.66-0.37,1-0.54
			c0.25-0.13,0.49-0.26,0.74-0.38c0.33-0.17,0.67-0.34,1.01-0.51c0.25-0.12,0.51-0.24,0.76-0.36c0.34-0.16,0.68-0.32,1.02-0.48
			c0.25-0.12,0.51-0.23,0.77-0.34c0.35-0.15,0.69-0.3,1.04-0.45c0.26-0.11,0.52-0.21,0.78-0.32c0.35-0.14,0.7-0.28,1.05-0.42
			c0.27-0.1,0.53-0.2,0.8-0.3c0.35-0.13,0.7-0.26,1.06-0.38c0.27-0.09,0.54-0.18,0.81-0.27c0.36-0.12,0.71-0.23,1.07-0.35
			c0.28-0.09,0.55-0.17,0.83-0.25c0.36-0.11,0.71-0.21,1.07-0.31c0.28-0.08,0.57-0.15,0.85-0.23c0.36-0.09,0.72-0.19,1.08-0.28
			c0.29-0.07,0.58-0.14,0.87-0.21c0.36-0.08,0.72-0.16,1.08-0.24c0.29-0.06,0.59-0.12,0.88-0.18c0.36-0.07,0.72-0.14,1.09-0.21
			c0.3-0.05,0.6-0.11,0.9-0.15c0.36-0.06,0.73-0.12,1.09-0.17c0.3-0.05,0.61-0.09,0.91-0.13c0.36-0.05,0.73-0.1,1.09-0.14
			c0.31-0.04,0.62-0.07,0.93-0.1c0.19-0.02,0.37-0.04,0.56-0.05c3.21,2.6,6.24,5.56,9.08,8.79c-18.89,15.11-31.64,39.16-35.16,65.98
			c-2.73-0.01-5.37,1.4-6.85,3.89C546.64,1057.54,538.11,1053.71,530.86,1049.19z M620.65,1060.44c-1.93,0.59-3.64,1.91-4.68,3.83
			c-0.4,0.75-0.67,1.53-0.81,2.32c-7.27,0.68-14.75,0.82-22.31,0.44c-7.58-0.4-15.03-1.32-22.22-2.77
			c-0.07-2.24-1.09-4.39-2.87-5.86c3.12-25.99,15.29-49.3,33.45-63.79C614.73,1012.15,621.79,1035.95,620.65,1060.44z M602.1,987.5
			c-1.82-2.1-3.73-4.08-5.72-5.95c4.3,0.1,8.55,0.62,12.74,1.58C606.73,984.44,604.38,985.9,602.1,987.5z M531.55,1055.6
			c6.96,3.95,14.86,7.32,23.34,9.96c0.33,2.43,1.77,4.67,4.09,5.92c0.9,0.48,1.85,0.77,2.8,0.88c0.04,10.5,1.48,20.71,4.32,30.5
			c-0.53-0.27-1.06-0.54-1.59-0.82C546.7,1092.48,534.66,1075.36,531.55,1055.6z M651.27,1075.92
			c-8.03,14.96-21.54,25.97-37.61,30.9c4.94-9.52,8.48-20.04,10.46-30.98c2.39-0.36,4.59-1.79,5.82-4.08
			c0.39-0.72,0.65-1.48,0.8-2.24c9.52-1.91,18.43-4.75,26.28-8.4C655.72,1066.25,653.81,1071.21,651.27,1075.92z"/>
		<g>
			<linearGradient id="SVGID_2_" gradientUnits="userSpaceOnUse" x1="620.9178" y1="882.4251" x2="712.8007" y2="1120.9397">
				<stop  offset="0" style="stop-color:#01038A"/>
				<stop  offset="1" style="stop-color:#0085FC"/>
			</linearGradient>
			<path class="st1" d="M635.57,968.56c-3.01-1.6-6.21-3.06-9.52-4.34l-7.22-2.78l-0.11-0.5c-2.21-9.93-2.48-20.07-0.82-30.16
				c1.43-8.66,4.27-17,8.45-24.78c3.45-6.42,7.72-12.31,12.69-17.48c1.44-1.5,2.93-2.94,4.44-4.28l0.55-0.49l13.42,9.08l-1.01,0.81
				c-1.67,1.34-3.16,2.65-4.55,4.02c-4.72,4.56-8.7,9.84-11.84,15.7c-3.37,6.29-5.66,13-6.8,19.95
				c-1.89,11.48-0.63,23.25,3.65,34.06l0.96,2.41L635.57,968.56z"/>
			<linearGradient id="SVGID_3_" gradientUnits="userSpaceOnUse" x1="604.6547" y1="888.0653" x2="693.8503" y2="1119.6042">
				<stop  offset="0" style="stop-color:#01038A"/>
				<stop  offset="1" style="stop-color:#0085FC"/>
			</linearGradient>
			<path class="st2" d="M524.93,1082.9c-2.08-3.86-3.84-7.91-5.25-12.03c-3.53-10.31-4.88-21.05-4.01-31.93
				c0.62-7.83,2.39-15.51,5.26-22.83c2.84-7.25,6.72-14.05,11.53-20.2c3.82-4.88,8.2-9.29,13.01-13.12l0.73-0.58l0.09,0.11
				c12.29-9.41,26.91-15.02,42.32-16.23c2.12-0.17,4.27-0.26,6.38-0.26c8.68,0,17.27,1.44,25.55,4.27c0.95,0.32,1.89,0.67,2.82,1.02
				c3.16,1.22,6.25,2.64,9.19,4.22c6.34,3.4,11.76,8.08,17.01,12.6c5.16,4.45,10.5,9.05,16.65,12.36c3.12,1.68,6.37,3.1,9.68,4.22
				c6.65,2.28,13.58,3.44,20.58,3.44c1.69,0,3.41-0.07,5.1-0.2c17.39-1.37,33.67-9.86,44.65-23.29l0.81,0.51l-0.74-0.6
				c8.12-10.13,12.94-22.31,13.95-35.2c0.7-8.74-0.38-17.38-3.22-25.67c-1.14-3.33-2.56-6.59-4.23-9.7l-0.45-0.84l13.7-7.36
				l0.45,0.84c2.08,3.86,3.84,7.91,5.25,12.03c3.53,10.3,4.88,21.05,4.01,31.93c-1.73,22-12.6,42.47-29.81,56.15l-0.73,0.58
				l-0.09-0.11c-12.29,9.41-26.9,15.02-42.32,16.23c-2.09,0.17-4.23,0.25-6.37,0.25c-8.69,0-17.29-1.44-25.57-4.27
				c-0.98-0.33-1.93-0.68-2.83-1.03c-3.09-1.18-6.18-2.6-9.19-4.22c-6.56-3.52-12.57-7.92-17.89-13.1l-0.01,0.03l-0.94-0.93
				c-4.38-4.34-9.36-8.02-14.81-10.95c-3.11-1.67-6.37-3.1-9.68-4.22c-6.65-2.28-13.56-3.43-20.55-3.43c-1.7,0-3.43,0.07-5.13,0.21
				c-17.39,1.37-33.67,9.86-44.65,23.29c-0.08,0.09-0.13,0.15-0.18,0.22l-0.08,0.1c-7.99,10.08-12.76,22.17-13.76,34.97
				c-0.7,8.74,0.38,17.38,3.22,25.67c1.14,3.33,2.56,6.59,4.23,9.7l0.45,0.84l-13.7,7.36L524.93,1082.9z"/>
			<linearGradient id="SVGID_4_" gradientUnits="userSpaceOnUse" x1="586.0237" y1="887.3317" x2="677.8601" y2="1125.7257">
				<stop  offset="0" style="stop-color:#01038A"/>
				<stop  offset="1" style="stop-color:#0085FC"/>
			</linearGradient>
			<path class="st3" d="M634.12,1096.4l0.75-0.59c6.82-5.43,12.38-12.1,16.52-19.83c3.37-6.28,5.66-12.99,6.8-19.95
				c1.89-11.48,0.63-23.25-3.65-34.05l-0.95-2.4l2.28,1.21c3.13,1.66,6.34,3.11,9.54,4.34l7.19,2.75l0.11,0.5
				c2.21,9.93,2.49,20.08,0.82,30.19c-1.43,8.67-4.27,17.01-8.45,24.78c-5.16,9.6-12.07,17.89-20.54,24.63l-0.75,0.59L634.12,1096.4
				z"/>
			<linearGradient id="SVGID_5_" gradientUnits="userSpaceOnUse" x1="621.6992" y1="879.9152" x2="713.1531" y2="1117.3162">
				<stop  offset="0" style="stop-color:#01038A"/>
				<stop  offset="1" style="stop-color:#0085FC"/>
			</linearGradient>
			<polygon class="st4" points="619.64,943.59 623.81,936.92 684.57,974.07 680.39,980.75 			"/>
			<linearGradient id="SVGID_6_" gradientUnits="userSpaceOnUse" x1="653.5062" y1="868.2137" x2="744.2262" y2="1103.7096">
				<stop  offset="0" style="stop-color:#01038A"/>
				<stop  offset="1" style="stop-color:#0085FC"/>
			</linearGradient>
			<polygon class="st5" points="634.68,920.28 634.17,910.86 730.65,967.54 726.32,974.12 			"/>
			<linearGradient id="SVGID_7_" gradientUnits="userSpaceOnUse" x1="657.077" y1="868.6014" x2="748.0101" y2="1104.6505">
				<stop  offset="0" style="stop-color:#01038A"/>
				<stop  offset="1" style="stop-color:#0085FC"/>
			</linearGradient>
			<path class="st6" d="M638.26,889.34l0.78-0.82c1.44-1.5,2.93-2.94,4.44-4.28l0.55-0.49l12.35,8.36l49.46,33.52l-4.23,6.64
				L638.26,889.34z"/>
			<linearGradient id="SVGID_8_" gradientUnits="userSpaceOnUse" x1="639.8356" y1="863.3356" x2="737.2635" y2="1116.2443">
				<stop  offset="0" style="stop-color:#01038A"/>
				<stop  offset="1" style="stop-color:#0085FC"/>
			</linearGradient>
			<path class="st7" d="M684.3,988.08c-3.62,0-6.95-2.12-8.48-5.4c-1.05-2.26-1.17-4.8-0.31-7.15c0.85-2.35,2.57-4.22,4.83-5.27
				c1.25-0.58,2.57-0.88,3.94-0.88c3.62,0,6.95,2.12,8.48,5.4c1.05,2.26,1.17,4.8,0.31,7.15c-0.85,2.35-2.57,4.22-4.83,5.27
				C686.99,987.79,685.66,988.08,684.3,988.08L684.3,988.08z"/>
			<linearGradient id="SVGID_9_" gradientUnits="userSpaceOnUse" x1="681.7238" y1="846.0768" x2="779.1517" y2="1098.9855">
				<stop  offset="0" style="stop-color:#01038A"/>
				<stop  offset="1" style="stop-color:#0085FC"/>
			</linearGradient>
			<path class="st8" d="M729.87,980.4c-3.62,0-6.95-2.12-8.48-5.4c-1.05-2.26-1.17-4.8-0.31-7.15c0.85-2.35,2.57-4.22,4.83-5.27
				c1.25-0.58,2.57-0.88,3.94-0.88c3.62,0,6.95,2.12,8.48,5.4c1.05,2.26,1.17,4.8,0.31,7.15c-0.85,2.35-2.57,4.22-4.83,5.27
				C732.57,980.1,731.24,980.4,729.87,980.4C729.87,980.4,729.87,980.4,729.87,980.4z"/>
			<linearGradient id="SVGID_10_" gradientUnits="userSpaceOnUse" x1="675.7726" y1="854.0793" x2="773.2004" y2="1106.9878">
				<stop  offset="0" style="stop-color:#01038A"/>
				<stop  offset="1" style="stop-color:#0085FC"/>
			</linearGradient>
			<path class="st9" d="M705.16,939.69c-3.62,0-6.95-2.12-8.48-5.4c-2.18-4.67-0.15-10.24,4.52-12.42c1.25-0.58,2.57-0.88,3.94-0.88
				c3.62,0,6.95,2.12,8.48,5.4c2.18,4.67,0.15,10.24-4.52,12.42C707.85,939.39,706.52,939.69,705.16,939.69L705.16,939.69z"/>
		</g>
	</g>
	<g>
		<g>
			<path d="M923.93,970.51c-2.85-8.8-7.33-16.76-13.47-23.87c-6.14-7.11-14.24-12.81-24.32-17.08c-10.07-4.27-22.29-6.4-36.63-6.4
				h-42.63v26.97h50.97c3.23,0,7.17,0.61,11.82,1.84c4.65,1.24,9.21,3.47,13.66,6.7c4.46,3.24,8.2,7.8,11.24,13.68
				c3.03,5.9,4.56,13.5,4.56,22.81c0,7.11-1.13,13.43-3.39,18.92c-2.27,5.51-5.49,10.06-9.69,13.68c-4.2,3.63-9.21,6.37-15.02,8.25
				c-5.82,1.89-12.27,2.82-19.38,2.82h-44.76v27.17h49.6c9.69,0,18.86-1.58,27.53-4.75c8.65-3.17,16.27-7.76,22.86-13.79
				c6.59-6.01,11.79-13.25,15.6-21.73c3.8-8.48,5.71-18.02,5.71-28.62C928.18,988.17,926.76,979.31,923.93,970.51z"/>
			<path d="M1028.89,1014.09l-2.06-3.22l-33.53,0.77l5.92,8.93l30.12,45.42h32.75L1028.89,1014.09z M1047.76,951.39
				c-2.45-5.89-6.04-10.93-10.76-15.14c-4.72-4.2-10.56-7.44-17.53-9.7c-6.97-2.26-14.92-3.39-23.84-3.39h-43.22v142.83h28.1v-45.42
				h20.15c9.56,0,17.58-1.46,24.03-4.36c1.47-0.66,2.87-1.36,4.2-2.13c4.56-2.58,8.35-5.72,11.4-9.43
				c3.94-4.78,6.79-10.09,8.52-15.91c1.75-5.82,2.63-11.63,2.63-17.46C1051.45,963.91,1050.21,957.28,1047.76,951.39z
				 M980.51,950.33h20.15c4.92,0,8.82,0.84,11.73,2.52c2.91,1.68,5.08,3.76,6.5,6.21c1.41,2.46,2.35,4.88,2.81,7.27
				c0.45,2.39,0.67,4.37,0.67,5.92c0,2.07-0.36,4.3-1.06,6.7c-0.72,2.39-1.87,4.7-3.49,6.89c-1.61,2.2-3.84,4.01-6.68,5.42
				c-2.85,1.43-6.4,2.14-10.65,2.14h-19.96V950.33z"/>
			<polygon points="1109.57,1038.83 1109.57,1007.97 1170.82,1007.97 1170.82,980.79 1081.48,980.79 1081.48,1065.99 
				1181.48,1065.99 1181.48,1038.83 			"/>
			<linearGradient id="SVGID_11_" gradientUnits="userSpaceOnUse" x1="1085.1265" y1="925.494" x2="1179.1157" y2="948.9913">
				<stop  offset="0" style="stop-color:#01038A"/>
				<stop  offset="1" style="stop-color:#0085FC"/>
			</linearGradient>
			<rect x="1081.48" y="923.16" class="st10" width="97.29" height="27.17"/>
			<path d="M1277.41,1014.37h-42.84l-8.72,23.69h61.44L1277.41,1014.37z M1256.48,917.53h-1.55l-64.34,148.47h27.71l11.62-27.94
				l9.84-23.69l14.48-34.82l13.71,34.82l9.31,23.69l11,27.94h32.56L1256.48,917.53z"/>
			<path d="M1484.19,917.33l-73.96,102.76l-72.35-102.76h-0.2v148.66h27.13v-63.93l44.77,61.99h0.38l46.52-66.21v68.16h28.1V917.33
				H1484.19z"/>
		</g>
		<g>
			<path d="M832.49,1115.8l-22.88-23.21l1.15,0.29l0.08,21.98h-3.97v-30.49h0.2l22.59,23.29l-0.9-0.2l-0.08-22.18h3.97v30.53H832.49
				z"/>
			<path d="M843.58,1085.27h19.24v3.81h-15.27v9h13.63v3.85h-13.63v9.13h15.84v3.81h-19.81V1085.27z"/>
			<path d="M870.51,1085.27h19.69v3.81h-7.94v25.78h-3.97v-25.78h-7.78V1085.27z"/>
			<path d="M896.33,1085.39H901l7.98,22.59l-0.7-0.25l5.85-15.18l1.84,5.36l-7.86,18.34L896.33,1085.39z M910.62,1085.39h3.93
				l8.72,22.31l-0.86-0.16l7.61-22.14h4.26l-11.62,30.78L910.62,1085.39z"/>
			<path d="M938.69,1100.08c0-2.05,0.39-3.98,1.17-5.81c0.78-1.83,1.86-3.44,3.25-4.85c1.39-1.4,2.99-2.5,4.81-3.29
				c1.82-0.79,3.77-1.19,5.87-1.19c2.05,0,3.98,0.4,5.81,1.19c1.83,0.79,3.44,1.89,4.85,3.29c1.41,1.41,2.5,3.02,3.29,4.85
				c0.79,1.83,1.19,3.78,1.19,5.85c0,2.07-0.4,4.03-1.19,5.85c-0.79,1.83-1.88,3.43-3.27,4.81c-1.39,1.38-3,2.46-4.83,3.23
				c-1.83,0.78-3.78,1.17-5.85,1.17c-2.1,0-4.06-0.38-5.87-1.15c-1.81-0.76-3.42-1.83-4.81-3.21c-1.39-1.38-2.48-2.97-3.25-4.79
				C939.08,1104.22,938.69,1102.24,938.69,1100.08z M942.79,1100.08c0,1.58,0.28,3.05,0.84,4.4c0.56,1.35,1.35,2.54,2.37,3.58
				c1.02,1.04,2.2,1.85,3.52,2.44c1.32,0.59,2.76,0.88,4.32,0.88c1.56,0,2.99-0.29,4.32-0.88c1.32-0.59,2.48-1.39,3.48-2.41
				c1-1.02,1.78-2.22,2.35-3.58c0.57-1.36,0.86-2.82,0.86-4.38c0-1.58-0.29-3.06-0.86-4.42c-0.57-1.36-1.36-2.57-2.35-3.62
				c-1-1.05-2.17-1.87-3.52-2.46c-1.35-0.59-2.79-0.88-4.32-0.88c-1.56,0-3.01,0.3-4.36,0.9c-1.35,0.6-2.52,1.42-3.52,2.46
				c-1,1.04-1.77,2.24-2.31,3.62C943.06,1097.1,942.79,1098.55,942.79,1100.08z"/>
			<path d="M985.92,1085.27c1.5,0,2.89,0.2,4.15,0.59c1.27,0.4,2.37,0.98,3.31,1.76c0.94,0.78,1.68,1.74,2.21,2.89
				c0.53,1.15,0.8,2.46,0.8,3.93c0,1.17-0.17,2.32-0.51,3.44c-0.34,1.12-0.9,2.14-1.68,3.05c-0.78,0.91-1.8,1.65-3.07,2.21
				c-1.27,0.56-2.84,0.84-4.73,0.84h-4.38v10.89h-3.97v-29.59H985.92z M986.33,1100.12c1.17,0,2.15-0.18,2.93-0.53
				c0.78-0.35,1.38-0.81,1.82-1.37c0.44-0.56,0.75-1.15,0.94-1.78c0.19-0.63,0.29-1.24,0.29-1.84c0-0.6-0.1-1.21-0.31-1.84
				c-0.2-0.63-0.53-1.22-0.98-1.78c-0.45-0.56-1.04-1.02-1.76-1.37s-1.6-0.53-2.64-0.53h-4.58v11.05H986.33z M991.2,1102.41
				l7.74,12.44h-4.58l-7.9-12.32L991.2,1102.41z"/>
			<path d="M1011.5,1097.17l-0.08,1.47l0.49-0.74l12.11-12.65h5.12l-12.24,12.69l12.93,16.9h-5.03l-10.81-14.37l-2.5,2.41v11.95
				h-4.01v-29.59h4.01V1097.17z"/>
			<path d="M1037.74,1085.27h3.97v29.59h-3.97V1085.27z"/>
			<path d="M1078.3,1115.8l-22.88-23.21l1.15,0.29l0.08,21.98h-3.97v-30.49h0.2l22.59,23.29l-0.9-0.2l-0.08-22.18h3.97v30.53H1078.3
				z"/>
			<path d="M1112.55,1112.32c-0.41,0.35-0.98,0.7-1.72,1.04c-0.74,0.34-1.55,0.65-2.44,0.92c-0.89,0.27-1.79,0.49-2.72,0.66
				c-0.93,0.16-1.82,0.25-2.66,0.25c-2.37,0-4.52-0.37-6.43-1.11c-1.91-0.74-3.54-1.76-4.89-3.07c-1.35-1.31-2.38-2.85-3.09-4.62
				c-0.71-1.77-1.06-3.68-1.06-5.73c0-2.51,0.4-4.73,1.21-6.67c0.8-1.94,1.9-3.58,3.29-4.93c1.39-1.35,3.01-2.37,4.85-3.07
				c1.84-0.7,3.77-1.04,5.79-1.04c1.74,0,3.36,0.2,4.83,0.59c1.47,0.4,2.77,0.92,3.89,1.58l-1.31,3.64
				c-0.57-0.3-1.26-0.59-2.07-0.88c-0.81-0.29-1.63-0.52-2.48-0.7c-0.85-0.18-1.62-0.27-2.33-0.27c-1.77,0-3.36,0.27-4.77,0.8
				c-1.41,0.53-2.62,1.3-3.64,2.29c-1.02,1-1.81,2.2-2.35,3.6c-0.55,1.41-0.82,2.98-0.82,4.73c0,1.58,0.27,3.05,0.82,4.4
				c0.55,1.35,1.33,2.51,2.35,3.48c1.02,0.97,2.23,1.71,3.62,2.23c1.39,0.52,2.95,0.78,4.67,0.78c0.98,0,1.96-0.1,2.95-0.29
				c0.98-0.19,1.81-0.49,2.5-0.9v-5.81h-5.85v-3.85h9.86V1112.32z"/>
			<path d="M1146.24,1100.61c-0.76,0-1.51,0.15-2.23,0.45c-0.72,0.3-1.38,0.71-1.97,1.23c-0.59,0.52-1.05,1.13-1.39,1.82
				c-0.34,0.7-0.51,1.44-0.51,2.23c0,1.06,0.28,2,0.84,2.8c0.56,0.81,1.31,1.43,2.25,1.88c0.94,0.45,1.97,0.68,3.09,0.68
				c1.04,0,1.95-0.16,2.74-0.47c0.79-0.31,1.47-0.74,2.05-1.27c0.57-0.53,0.99-1.11,1.27-1.74l2.54,2.21
				c-0.74,1.34-1.88,2.48-3.42,3.42c-1.54,0.94-3.43,1.41-5.67,1.41c-1.86,0-3.53-0.38-5.01-1.15c-1.49-0.76-2.66-1.81-3.52-3.13
				c-0.86-1.32-1.29-2.8-1.29-4.44c0-1.31,0.29-2.5,0.88-3.58c0.59-1.08,1.36-2.02,2.31-2.82c0.95-0.8,2.03-1.45,3.23-1.92
				c1.2-0.48,2.44-0.72,3.72-0.72L1146.24,1100.61z M1161.25,1114.86c-0.24,0-0.62,0-1.12,0s-1.02,0-1.56,0c-0.53,0-1.18,0-1.94,0
				l-14.2-18.74c-0.25-0.38-0.53-0.86-0.86-1.43c-0.33-0.57-0.61-1.21-0.84-1.92c-0.23-0.71-0.35-1.43-0.35-2.17
				c0-1.17,0.28-2.27,0.84-3.29s1.38-1.86,2.48-2.5c1.09-0.64,2.41-0.96,3.97-0.96c1.61,0,3.05,0.32,4.32,0.96
				c1.27,0.64,2.31,1.4,3.13,2.27l-1.96,2.62c-0.85-0.76-1.67-1.36-2.48-1.8s-1.6-0.66-2.39-0.66c-1.2,0-2.13,0.36-2.8,1.06
				c-0.67,0.71-1,1.57-1,2.58c0,0.49,0.1,1,0.31,1.51c0.2,0.52,0.42,0.96,0.63,1.31c0.22,0.35,0.34,0.59,0.37,0.7L1161.25,1114.86z
				 M1156.51,1097.5h3.64l-4.79,12.28l-2.86-1.84L1156.51,1097.5z"/>
			<path d="M1182.54,1114.86l12.89-30.82h0.25l12.93,30.82h-4.54l-9.66-24.6l2.82-1.84l-10.76,26.44H1182.54z M1190.11,1103.64
				h11.01l1.31,3.44h-13.47L1190.11,1103.64z"/>
			<path d="M1219.54,1104.38c0,1.34,0.32,2.53,0.96,3.58c0.64,1.05,1.5,1.88,2.58,2.48c1.08,0.6,2.27,0.9,3.58,0.9
				c1.39,0,2.63-0.3,3.72-0.9c1.09-0.6,1.94-1.43,2.56-2.48c0.61-1.05,0.92-2.24,0.92-3.58v-19.11h3.93v19.24
				c0,2.16-0.49,4.04-1.47,5.65c-0.98,1.61-2.32,2.85-4.01,3.72c-1.69,0.87-3.57,1.31-5.65,1.31c-2.05,0-3.91-0.44-5.61-1.31
				s-3.03-2.11-4.01-3.72c-0.98-1.61-1.47-3.49-1.47-5.65v-19.24h3.97V1104.38z"/>
			<path d="M1246.14,1085.27h19.69v3.81h-7.94v25.78h-3.97v-25.78h-7.78V1085.27z"/>
			<path d="M1271.47,1100.08c0-2.05,0.39-3.98,1.17-5.81c0.78-1.83,1.86-3.44,3.25-4.85c1.39-1.4,2.99-2.5,4.81-3.29
				c1.82-0.79,3.77-1.19,5.87-1.19c2.05,0,3.98,0.4,5.81,1.19c1.83,0.79,3.44,1.89,4.85,3.29c1.41,1.41,2.5,3.02,3.29,4.85
				c0.79,1.83,1.19,3.78,1.19,5.85c0,2.07-0.4,4.03-1.19,5.85c-0.79,1.83-1.88,3.43-3.27,4.81c-1.39,1.38-3,2.46-4.83,3.23
				c-1.83,0.78-3.78,1.17-5.85,1.17c-2.1,0-4.06-0.38-5.87-1.15c-1.81-0.76-3.42-1.83-4.81-3.21c-1.39-1.38-2.48-2.97-3.25-4.79
				C1271.86,1104.22,1271.47,1102.24,1271.47,1100.08z M1275.56,1100.08c0,1.58,0.28,3.05,0.84,4.4c0.56,1.35,1.35,2.54,2.37,3.58
				c1.02,1.04,2.2,1.85,3.52,2.44c1.32,0.59,2.76,0.88,4.32,0.88c1.56,0,2.99-0.29,4.32-0.88c1.32-0.59,2.48-1.39,3.48-2.41
				c0.99-1.02,1.78-2.22,2.35-3.58c0.57-1.36,0.86-2.82,0.86-4.38c0-1.58-0.29-3.06-0.86-4.42c-0.57-1.36-1.36-2.57-2.35-3.62
				c-1-1.05-2.17-1.87-3.52-2.46c-1.35-0.59-2.79-0.88-4.32-0.88c-1.56,0-3.01,0.3-4.36,0.9c-1.35,0.6-2.52,1.42-3.52,2.46
				c-1,1.04-1.77,2.24-2.31,3.62C1275.84,1097.1,1275.56,1098.55,1275.56,1100.08z"/>
			<path d="M1310.84,1114.86v-30.53h0.04l15.51,22.06l-1.68-0.37l15.51-21.69h0.04v30.53h-3.97v-21.53l0.29,2.01l-11.13,15.8h-0.08
				l-11.34-15.8l0.66-1.84v21.36H1310.84z"/>
			<path d="M1348.29,1114.86l12.89-30.82h0.25l12.93,30.82h-4.54l-9.66-24.6l2.82-1.84l-10.76,26.44H1348.29z M1355.86,1103.64
				h11.01l1.31,3.44h-13.47L1355.86,1103.64z"/>
			<path d="M1377.88,1085.27h19.69v3.81h-7.94v25.78h-3.97v-25.78h-7.78V1085.27z"/>
			<path d="M1406.33,1085.27h3.97v29.59h-3.97V1085.27z"/>
			<path d="M1419.42,1100.08c0-2.05,0.39-3.98,1.17-5.81c0.78-1.83,1.86-3.44,3.25-4.85c1.39-1.4,2.99-2.5,4.81-3.29
				c1.81-0.79,3.77-1.19,5.87-1.19c2.05,0,3.98,0.4,5.81,1.19c1.83,0.79,3.44,1.89,4.85,3.29c1.41,1.41,2.5,3.02,3.29,4.85
				c0.79,1.83,1.19,3.78,1.19,5.85c0,2.07-0.4,4.03-1.19,5.85c-0.79,1.83-1.88,3.43-3.27,4.81c-1.39,1.38-3,2.46-4.83,3.23
				c-1.83,0.78-3.78,1.17-5.85,1.17c-2.1,0-4.06-0.38-5.87-1.15c-1.81-0.76-3.42-1.83-4.81-3.21c-1.39-1.38-2.48-2.97-3.25-4.79
				C1419.81,1104.22,1419.42,1102.24,1419.42,1100.08z M1423.51,1100.08c0,1.58,0.28,3.05,0.84,4.4c0.56,1.35,1.35,2.54,2.37,3.58
				c1.02,1.04,2.2,1.85,3.52,2.44c1.32,0.59,2.76,0.88,4.32,0.88c1.56,0,2.99-0.29,4.32-0.88c1.32-0.59,2.48-1.39,3.48-2.41
				c1-1.02,1.78-2.22,2.35-3.58c0.57-1.36,0.86-2.82,0.86-4.38c0-1.58-0.29-3.06-0.86-4.42c-0.57-1.36-1.36-2.57-2.35-3.62
				c-1-1.05-2.17-1.87-3.52-2.46c-1.35-0.59-2.79-0.88-4.32-0.88c-1.56,0-3.01,0.3-4.36,0.9c-1.35,0.6-2.52,1.42-3.52,2.46
				c-1,1.04-1.77,2.24-2.31,3.62C1423.79,1097.1,1423.51,1098.55,1423.51,1100.08z"/>
			<path d="M1484.41,1115.8l-22.88-23.21l1.15,0.29l0.08,21.98h-3.97v-30.49h0.2l22.59,23.29l-0.9-0.2l-0.08-22.18h3.97v30.53
				H1484.41z"/>
		</g>
	</g>
</g>
</svg>
