<?xml version="1.0" encoding="utf-8"?>
<!-- Generator: Adobe Illustrator 24.3.0, SVG Export Plug-In . SVG Version: 6.00 Build 0)  -->
<svg version="1.1" id="Layer_1" xmlns="http://www.w3.org/2000/svg" xmlns:xlink="http://www.w3.org/1999/xlink" x="0px" y="0px"
	 viewBox="0 0 512 512" style="enable-background:new 0 0 512 512;" xml:space="preserve">
<style type="text/css">
	.st0{fill:#FFFFFF;}
	.st1{fill:url(#SVGID_1_);}
	.st2{opacity:0.4;fill:url(#SVGID_2_);}
	.st3{fill:url(#SVGID_3_);}
	.st4{fill:url(#SVGID_4_);}
	.st5{fill:url(#SVGID_5_);}
	.st6{fill:url(#SVGID_6_);}
	.st7{fill:url(#SVGID_7_);}
	.st8{fill:url(#SVGID_8_);}
	.st9{fill:url(#SVGID_9_);}
	.st10{fill:url(#SVGID_10_);}
	.st11{fill:url(#SVGID_11_);}
	.st12{opacity:0.4;fill:#FFFFFF;}
</style>
<linearGradient id="SVGID_1_" gradientUnits="userSpaceOnUse" x1="572.5509" y1="619.2273" x2="40.7489" y2="9.0095">
	<stop  offset="0" style="stop-color:#01038A"/>
	<stop  offset="1" style="stop-color:#0085FC"/>
</linearGradient>
<rect x="0" class="st1" width="512" height="512"/>
<g>
	<g>
		<path class="st12" d="M278.94,324.72c0.09-0.84,0.18-1.67,0.24-2.51c0.04-0.45,0.06-0.91,0.09-1.36c0.05-0.78,0.09-1.55,0.12-2.33
			c0.02-0.46,0.03-0.92,0.04-1.38c0.02-0.78,0.02-1.56,0.02-2.34c0-0.44,0-0.88-0.01-1.32c-0.02-0.84-0.05-1.67-0.09-2.5
			c-0.02-0.37-0.03-0.74-0.05-1.11c-0.06-1.04-0.15-2.08-0.25-3.12c-0.01-0.16-0.02-0.31-0.04-0.47c-0.12-1.17-0.26-2.33-0.42-3.49
			h-0.01c-0.19-1.34-0.4-2.67-0.65-3.99h-6.75c0.31,1.51,0.56,3.03,0.79,4.56c0.08,0.54,0.16,1.09,0.23,1.64
			c0.03,0.24,0.06,0.48,0.08,0.72c0.16,1.32,0.28,2.65,0.37,3.98c0,0.05,0.01,0.1,0.01,0.15c0.03,0.49,0.05,0.99,0.08,1.49
			c0.02,0.4,0.04,0.8,0.05,1.2c0.01,0.44,0.02,0.89,0.03,1.33c0.01,0.47,0.01,0.95,0.01,1.42c0,0.4,0,0.79-0.01,1.19
			c-0.01,0.56-0.03,1.13-0.05,1.69c-0.01,0.32-0.02,0.64-0.04,0.96c-0.04,0.89-0.1,1.78-0.17,2.68c-0.09,1.12-0.2,2.23-0.34,3.35
			c-0.07,0.57-0.14,1.15-0.23,1.73c-10.46,5.43-22.79,9.6-36.13,12.31c-0.9-1.76-2.33-3.27-4.2-4.28c-0.37-0.2-0.74-0.36-1.12-0.51
			c1.51-32.77-7.96-64.7-26.12-88.33c4.52-3.12,9.25-5.82,14.1-7.98c0.54,0.19,1.08,0.4,1.62,0.6c0.36,0.14,0.7,0.28,1.06,0.42
			c1.33,0.52,2.65,1.09,3.95,1.7c0.48,0.22,0.97,0.44,1.45,0.68c1.03,0.5,2.06,1.02,3.07,1.57c1.46,0.79,2.89,1.61,4.29,2.48
			c0.74,0.46,1.45,0.96,2.18,1.44c0.64,0.42,1.29,0.82,1.91,1.26c0.89,0.63,1.75,1.29,2.61,1.95c0.43,0.33,0.87,0.63,1.29,0.97
			c0.87,0.7,1.71,1.43,2.55,2.16c0.4,0.35,0.83,0.68,1.22,1.04c0.69,0.62,1.36,1.25,2.03,1.88c0.5,0.48,0.99,0.98,1.48,1.48v-9.08
			c-1.08-0.95-2.2-1.86-3.34-2.76h0.03c-0.11-0.09-0.22-0.17-0.33-0.25c-0.25-0.2-0.52-0.39-0.77-0.58
			c-0.94-0.72-1.9-1.43-2.87-2.12c-0.41-0.29-0.82-0.57-1.23-0.85c-0.89-0.61-1.8-1.2-2.73-1.78c-0.4-0.25-0.79-0.51-1.2-0.75
			c-1.31-0.79-2.64-1.57-4-2.3c-4.31-2.32-8.79-4.28-13.35-5.82l-0.18-0.07l-1.01-0.35l-0.02,0.01
			c-10.64-3.48-21.68-4.84-32.86-4.12l-0.04-0.03l-1.29,0.1c-24.98,1.97-47.48,14.18-62.61,33.43c-3.15,4.01-6,8.32-8.47,12.92
			c-1.66,3.09-3.12,6.27-4.39,9.51c-2.15,5.45-3.75,11.08-4.78,16.82c-1.31,7.31-1.7,14.78-1.12,22.26l0.14,1.64l0.02,0.01
			c2.82,29.57,20,55.49,46.21,69.57c2.59,1.39,5.25,2.65,7.92,3.75l0.01,0.02l1.22,0.49c0.06,0.02,0.12,0.05,0.18,0.07
			c1.75,0.69,3.52,1.31,5.3,1.89c7.14,2.33,14.51,3.72,21.94,4.16c0.36,0.02,0.72,0.06,1.08,0.08c0.67,0.03,1.34,0.03,2.02,0.05
			c0.71,0.02,1.42,0.05,2.13,0.05c0,0,0,0,0,0c0,0,0,0,0,0c5.46,0,10.94-0.54,16.38-1.56c0.6-0.11,1.2-0.2,1.8-0.33l1.41-0.3
			l0.03-0.05c12.26-2.77,23.64-8.05,33.45-15.38c10.21-7.64,18.77-17.48,24.96-29.02c4.38-8.16,7.44-16.87,9.09-25.88l0.02-0.01
			l0.27-1.6c0.2-1.22,0.37-2.45,0.52-3.67C278.86,325.49,278.89,325.11,278.94,324.72z M206.28,395.59
			c-0.26,0.05-0.53,0.1-0.79,0.15c-0.44,0.08-0.87,0.15-1.31,0.23c-0.53,0.09-1.06,0.17-1.59,0.25c-0.42,0.06-0.84,0.12-1.26,0.17
			c-0.54,0.07-1.09,0.14-1.63,0.19c-0.41,0.04-0.82,0.09-1.23,0.12c-0.55,0.05-1.11,0.1-1.66,0.14c-0.4,0.03-0.81,0.06-1.21,0.08
			c-0.56,0.03-1.12,0.06-1.68,0.08c-0.4,0.01-0.8,0.03-1.2,0.04c-0.56,0.01-1.12,0.02-1.68,0.02c-0.4,0-0.8,0-1.21-0.01
			c-0.56-0.01-1.11-0.02-1.67-0.04c-0.4-0.01-0.81-0.03-1.21-0.05c-0.55-0.03-1.11-0.06-1.66-0.1c-0.4-0.03-0.81-0.06-1.21-0.09
			c-0.55-0.05-1.1-0.1-1.65-0.16c-0.41-0.04-0.81-0.09-1.22-0.14c-0.54-0.07-1.09-0.14-1.63-0.21c-0.41-0.06-0.82-0.12-1.23-0.18
			c-0.54-0.08-1.07-0.17-1.61-0.27c-0.41-0.07-0.82-0.15-1.23-0.23c-0.53-0.1-1.07-0.21-1.6-0.32c-0.41-0.09-0.81-0.18-1.22-0.27
			c-0.53-0.12-1.06-0.25-1.59-0.38c-0.4-0.1-0.81-0.21-1.21-0.31c-0.53-0.14-1.05-0.29-1.58-0.44c-0.4-0.12-0.8-0.23-1.19-0.36
			c-0.53-0.16-1.06-0.33-1.58-0.5c-0.39-0.13-0.77-0.26-1.16-0.39c-0.53-0.18-1.07-0.37-1.6-0.57c-0.18-0.07-0.37-0.14-0.55-0.21
			c-4.69-13.97-6.99-28.73-6.89-43.98c1.03-0.65,1.94-1.5,2.7-2.52c9.72,1.98,19.79,3.27,30.04,3.8c3.63,0.18,7.25,0.28,10.84,0.28
			c6.42,0,12.77-0.33,19-0.92c0.87,1.66,2.21,3.09,3.95,4.09C219.11,367.99,213.8,382.68,206.28,395.59z M109.21,319.76
			c-0.01-0.16-0.02-0.32-0.03-0.48c-0.03-0.58-0.05-1.16-0.07-1.74c-0.01-0.38-0.02-0.77-0.03-1.15c-0.01-0.56-0.01-1.12-0.01-1.68
			c0-0.4,0.01-0.8,0.02-1.21c0.01-0.54,0.03-1.08,0.05-1.63c0.02-0.41,0.04-0.83,0.06-1.24c0.03-0.53,0.06-1.06,0.1-1.59
			c0.03-0.42,0.07-0.84,0.11-1.26c0.05-0.52,0.1-1.04,0.15-1.56c0.05-0.43,0.1-0.85,0.15-1.28c0.06-0.51,0.13-1.03,0.21-1.54
			c0.06-0.43,0.13-0.86,0.2-1.29c0.08-0.5,0.16-1.01,0.25-1.51c0.08-0.44,0.17-0.87,0.25-1.31c0.1-0.49,0.19-0.99,0.3-1.48
			c0.1-0.44,0.2-0.88,0.3-1.32c0.11-0.48,0.22-0.96,0.35-1.44c0.11-0.45,0.24-0.9,0.36-1.35c0.13-0.46,0.25-0.93,0.39-1.39
			c0.14-0.47,0.28-0.93,0.43-1.39c0.14-0.44,0.27-0.88,0.42-1.32c0.16-0.49,0.34-0.98,0.51-1.46c0.14-0.41,0.28-0.82,0.43-1.22
			c0.2-0.54,0.41-1.07,0.62-1.6c0.14-0.35,0.27-0.71,0.41-1.06c0.26-0.63,0.53-1.25,0.8-1.87c0.11-0.25,0.21-0.51,0.33-0.76
			c0.38-0.86,0.78-1.71,1.2-2.55c0.01-0.01,0.01-0.03,0.02-0.04c0.43-0.88,0.88-1.75,1.34-2.61c1.18-2.2,2.46-4.34,3.82-6.4
			c0.05-0.07,0.09-0.14,0.13-0.21c0.36-0.54,0.73-1.07,1.1-1.6c0.12-0.17,0.24-0.35,0.36-0.52c0.33-0.47,0.67-0.92,1.01-1.38
			c0.17-0.23,0.33-0.46,0.51-0.69c0.31-0.42,0.64-0.82,0.96-1.23c0.2-0.26,0.41-0.52,0.61-0.78c0.3-0.37,0.61-0.74,0.92-1.11
			c0.24-0.28,0.47-0.57,0.71-0.85c0.29-0.34,0.59-0.67,0.89-1.01c0.26-0.3,0.53-0.6,0.8-0.89c0.29-0.32,0.59-0.63,0.88-0.94
			c0.28-0.3,0.57-0.6,0.86-0.9c0.29-0.3,0.59-0.59,0.88-0.88c0.3-0.3,0.6-0.61,0.91-0.9c0.29-0.28,0.58-0.55,0.87-0.82
			c0.33-0.3,0.65-0.61,0.98-0.91c0.28-0.26,0.58-0.51,0.86-0.76c0.34-0.3,0.68-0.6,1.03-0.9c0.29-0.25,0.58-0.48,0.87-0.73
			c0.36-0.29,0.71-0.59,1.07-0.88c0.29-0.23,0.58-0.46,0.88-0.68c0.37-0.29,0.74-0.58,1.11-0.86c0.29-0.22,0.59-0.43,0.88-0.65
			c0.38-0.28,0.76-0.56,1.15-0.83c0.3-0.21,0.6-0.41,0.9-0.62c0.39-0.27,0.78-0.53,1.18-0.79c0.3-0.2,0.61-0.39,0.91-0.59
			c0.4-0.26,0.8-0.51,1.21-0.76c0.31-0.19,0.62-0.37,0.92-0.55c0.41-0.25,0.82-0.49,1.24-0.73c0.31-0.18,0.62-0.35,0.93-0.52
			c0.42-0.23,0.85-0.47,1.27-0.7c0.31-0.17,0.63-0.33,0.95-0.49c0.43-0.22,0.86-0.44,1.29-0.65c0.32-0.16,0.65-0.31,0.97-0.47
			c0.43-0.21,0.87-0.41,1.31-0.61c0.33-0.15,0.65-0.29,0.98-0.43c0.44-0.19,0.88-0.39,1.33-0.57c0.33-0.14,0.66-0.27,1-0.41
			c0.45-0.18,0.9-0.36,1.35-0.53c0.34-0.13,0.68-0.25,1.02-0.38c0.45-0.17,0.9-0.33,1.35-0.49c0.35-0.12,0.69-0.24,1.04-0.35
			c0.45-0.15,0.91-0.3,1.37-0.44c0.35-0.11,0.71-0.22,1.06-0.32c0.46-0.14,0.91-0.27,1.37-0.4c0.36-0.1,0.72-0.2,1.09-0.29
			c0.46-0.12,0.92-0.24,1.38-0.35c0.37-0.09,0.74-0.18,1.11-0.26c0.46-0.11,0.92-0.21,1.38-0.31c0.37-0.08,0.75-0.16,1.12-0.23
			c0.46-0.09,0.93-0.18,1.39-0.26c0.38-0.07,0.76-0.13,1.15-0.2c0.46-0.08,0.93-0.15,1.39-0.22c0.39-0.06,0.78-0.11,1.16-0.16
			c0.46-0.06,0.93-0.12,1.39-0.18c0.4-0.05,0.79-0.09,1.19-0.13c0.24-0.02,0.48-0.05,0.72-0.07c4.1,3.33,7.98,7.11,11.6,11.23
			c-24.15,19.31-40.43,50.05-44.94,84.32c-3.49-0.02-6.87,1.78-8.75,4.97C129.37,330.43,118.46,325.54,109.21,319.76z
			 M223.96,334.13c-2.47,0.75-4.66,2.44-5.98,4.89c-0.51,0.95-0.85,1.95-1.04,2.96c-9.29,0.87-18.85,1.05-28.52,0.56
			c-9.68-0.51-19.21-1.69-28.39-3.53c-0.09-2.86-1.39-5.61-3.67-7.49c3.99-33.22,19.54-63.01,42.75-81.52
			C216.39,272.42,225.41,302.83,223.96,334.13z M200.24,240.91c-2.33-2.68-4.77-5.22-7.31-7.6c5.49,0.12,10.93,0.79,16.28,2.02
			C206.16,237.01,203.16,238.87,200.24,240.91z M110.08,327.95c8.9,5.05,18.99,9.35,29.82,12.73c0.42,3.1,2.26,5.97,5.23,7.57
			c1.15,0.62,2.36,0.98,3.58,1.13c0.05,13.41,1.9,26.47,5.52,38.98c-0.68-0.34-1.36-0.69-2.03-1.05
			C129.45,375.08,114.05,353.2,110.08,327.95z M263.09,353.92c-10.27,19.12-27.53,33.19-48.07,39.49
			c6.31-12.16,10.84-25.61,13.36-39.6c3.05-0.45,5.86-2.28,7.43-5.21c0.49-0.92,0.83-1.89,1.02-2.86
			c12.16-2.45,23.56-6.07,33.59-10.73C268.78,341.56,266.33,347.89,263.09,353.92z"/>
		<g>
			<path class="st0" d="M243.02,216.7c-3.85-2.05-7.94-3.91-12.16-5.54l-9.23-3.56l-0.14-0.64c-2.82-12.69-3.17-25.66-1.04-38.55
				c1.83-11.07,5.46-21.73,10.8-31.67c4.41-8.21,9.87-15.73,16.22-22.34c1.84-1.92,3.75-3.76,5.68-5.47l0.71-0.63l17.15,11.61
				l-1.29,1.03c-2.13,1.71-4.03,3.39-5.81,5.13c-6.03,5.83-11.12,12.58-15.14,20.07c-4.31,8.04-7.24,16.62-8.7,25.49
				c-2.42,14.67-0.81,29.72,4.66,43.53l1.22,3.08L243.02,216.7z"/>
			<path class="st0" d="M101.62,362.84c-2.66-4.93-4.91-10.11-6.71-15.38c-4.51-13.18-6.24-26.91-5.12-40.81
				c0.79-10.01,3.05-19.83,6.72-29.18c3.63-9.27,8.59-17.96,14.74-25.82c4.88-6.24,10.48-11.88,16.63-16.77l0.94-0.75l0.12,0.15
				c15.71-12.03,34.39-19.2,54.09-20.74c2.71-0.22,5.45-0.33,8.16-0.33c11.09,0,22.07,1.84,32.65,5.46
				c1.21,0.41,2.41,0.85,3.61,1.31c4.04,1.56,7.99,3.37,11.75,5.39c8.1,4.35,15.03,10.32,21.73,16.1
				c6.6,5.69,13.42,11.57,21.28,15.79c3.98,2.14,8.15,3.96,12.38,5.4c8.5,2.91,17.35,4.39,26.3,4.39c2.16,0,4.35-0.09,6.52-0.26
				c22.23-1.75,43.03-12.6,57.06-29.77l1.04,0.65l-0.95-0.76c10.37-12.95,16.54-28.51,17.83-44.99c0.9-11.17-0.49-22.21-4.12-32.81
				c-1.45-4.25-3.27-8.42-5.41-12.39l-0.58-1.07l17.52-9.41l0.58,1.07c2.66,4.94,4.91,10.11,6.71,15.38
				c4.51,13.17,6.24,26.9,5.13,40.81c-2.21,28.12-16.1,54.27-38.1,71.77l-0.94,0.75l-0.12-0.15c-15.71,12.03-34.38,19.2-54.09,20.75
				c-2.67,0.21-5.4,0.32-8.14,0.32c-11.1,0-22.09-1.84-32.67-5.46c-1.25-0.42-2.47-0.86-3.62-1.31c-3.95-1.51-7.9-3.32-11.75-5.39
				c-8.38-4.5-16.06-10.13-22.87-16.75l-0.02,0.03l-1.2-1.18c-5.6-5.54-11.97-10.25-18.93-13.99c-3.98-2.14-8.14-3.96-12.38-5.4
				c-8.5-2.91-17.33-4.39-26.26-4.39c-2.17,0-4.38,0.09-6.56,0.26c-22.23,1.75-43.03,12.6-57.06,29.77c-0.1,0.12-0.16,0.2-0.23,0.27
				l-0.1,0.13c-10.22,12.88-16.3,28.34-17.59,44.69c-0.9,11.18,0.49,22.22,4.12,32.81c1.45,4.26,3.27,8.43,5.41,12.39l0.58,1.07
				l-17.51,9.41L101.62,362.84z"/>
			<path class="st0" d="M241.17,380.1l0.95-0.76c8.71-6.94,15.82-15.46,21.12-25.34c4.31-8.03,7.24-16.6,8.7-25.49
				c2.42-14.67,0.8-29.71-4.66-43.52l-1.22-3.07l2.92,1.54c4,2.12,8.11,3.98,12.19,5.54l9.19,3.52l0.14,0.64
				c2.83,12.69,3.18,25.67,1.05,38.58c-1.82,11.08-5.46,21.73-10.8,31.68c-6.6,12.28-15.43,22.87-26.25,31.48l-0.95,0.76
				L241.17,380.1z"/>
			<polygon class="st0" points="222.66,184.8 227.99,176.27 305.64,223.75 300.31,232.29 			"/>
			<polygon class="st0" points="241.89,155.01 241.23,142.96 364.54,215.41 359.01,223.81 			"/>
			<path class="st0" d="M246.46,115.46l1-1.04c1.84-1.92,3.75-3.76,5.68-5.47l0.71-0.63L269.62,119l63.22,42.83l-5.41,8.49
				L246.46,115.46z"/>
			<path class="st0" d="M305.3,241.66c-4.63,0-8.88-2.71-10.83-6.9c-1.35-2.89-1.49-6.14-0.4-9.13c1.09-3,3.29-5.39,6.18-6.74
				c1.6-0.74,3.29-1.12,5.04-1.12c4.63,0,8.88,2.71,10.83,6.9c1.35,2.89,1.49,6.14,0.4,9.13c-1.09,3-3.29,5.39-6.18,6.74
				C308.74,241.28,307.04,241.66,305.3,241.66L305.3,241.66z"/>
			<path class="st0" d="M363.54,231.83c-4.63,0-8.88-2.71-10.83-6.9c-1.35-2.89-1.49-6.14-0.4-9.13c1.09-3,3.29-5.39,6.18-6.74
				c1.6-0.74,3.29-1.12,5.04-1.12c4.63,0,8.88,2.71,10.83,6.9c1.35,2.89,1.49,6.14,0.4,9.13c-1.09,3-3.29,5.39-6.18,6.74
				C366.99,231.46,365.29,231.83,363.54,231.83C363.54,231.83,363.55,231.83,363.54,231.83z"/>
			<path class="st0" d="M331.96,179.81c-4.63,0-8.88-2.71-10.83-6.9c-2.78-5.97-0.19-13.09,5.78-15.87c1.6-0.74,3.29-1.12,5.04-1.12
				c4.63,0,8.88,2.71,10.83,6.9c2.78,5.97,0.19,13.09-5.78,15.87C335.4,179.43,333.7,179.81,331.96,179.81L331.96,179.81z"/>
		</g>
	</g>
</g>
</svg>
